HIERARCHY
ROOT Hips
{
	OFFSET 0.00000 0.00000 0.00000
	CHANNELS 6 Xposition Yposition Zposition Zrotation Yrotation Xrotation 
	JOINT LHipJoint
	{
		OFFSET 0 0 0
		CHANNELS 3 Zrotation Yrotation Xrotation
		JOINT LeftUpLeg
		{
			OFFSET 1.56857 -1.73443 1.15205
			CHANNELS 3 Zrotation Yrotation Xrotation
			JOINT LeftLeg
			{
				OFFSET 2.39362 -6.57643 0.00000
				CHANNELS 3 Zrotation Yrotation Xrotation
				JOINT LeftFoot
				{
					OFFSET 2.50952 -6.89485 0.00000
					CHANNELS 3 Zrotation Yrotation Xrotation
					JOINT LeftToeBase
					{
						OFFSET 0.17171 -0.47178 1.88682
						CHANNELS 3 Zrotation Yrotation Xrotation
						End Site
						{
							OFFSET 0.00000 -0.00000 0.98146
						}
					}
				}
			}
		}
	}
	JOINT RHipJoint
	{
		OFFSET 0 0 0
		CHANNELS 3 Zrotation Yrotation Xrotation
		JOINT RightUpLeg
		{
			OFFSET -1.28153 -1.73443 1.15205
			CHANNELS 3 Zrotation Yrotation Xrotation
			JOINT RightLeg
			{
				OFFSET -2.26861 -6.23296 0.00000
				CHANNELS 3 Zrotation Yrotation Xrotation
				JOINT RightFoot
				{
					OFFSET -2.54143 -6.98254 0.00000
					CHANNELS 3 Zrotation Yrotation Xrotation
					JOINT RightToeBase
					{
						OFFSET -0.23309 -0.64041 1.93119
						CHANNELS 3 Zrotation Yrotation Xrotation
						End Site
						{
							OFFSET -0.00000 -0.00000 1.02013
						}
					}
				}
			}
		}
	}
	JOINT LowerBack
	{
		OFFSET 0 0 0
		CHANNELS 3 Zrotation Yrotation Xrotation
		JOINT Spine
		{
			OFFSET -0.07096 2.10460 -0.27878
			CHANNELS 3 Zrotation Yrotation Xrotation
			JOINT Spine1
			{
				OFFSET -0.00826 2.13662 -0.08279
				CHANNELS 3 Zrotation Yrotation Xrotation
				JOINT Neck
				{
					OFFSET 0 0 0
					CHANNELS 3 Zrotation Yrotation Xrotation
					JOINT Neck1
					{
						OFFSET 0.03239 1.77799 0.24435
						CHANNELS 3 Zrotation Yrotation Xrotation
						JOINT Head
						{
							OFFSET 0.01026 1.74194 -0.49664
							CHANNELS 3 Zrotation Yrotation Xrotation
							End Site
							{
								OFFSET 0.00170 1.83057 -0.19653
							}
						}
					}
				}
				JOINT LeftShoulder
				{
					OFFSET 0 0 0
					CHANNELS 3 Zrotation Yrotation Xrotation
					JOINT LeftArm
					{
						OFFSET 3.19178 1.35907 -0.31412
						CHANNELS 3 Zrotation Yrotation Xrotation
						JOINT LeftForeArm
						{
							OFFSET 4.85247 -0.00000 -0.00000
							CHANNELS 3 Zrotation Yrotation Xrotation
							JOINT LeftHand
							{
								OFFSET 3.55584 -0.00000 0.00000
								CHANNELS 3 Zrotation Yrotation Xrotation
								JOINT LeftFingerBase
								{
									OFFSET 0 0 0
									CHANNELS 3 Zrotation Yrotation Xrotation
									JOINT LeftHandIndex1
									{
										OFFSET 0.69320 -0.00000 0.00000
										CHANNELS 3 Zrotation Yrotation Xrotation
										End Site
										{
											OFFSET 0.55888 -0.00000 0.00000
										}
									}
								}
								JOINT LThumb
								{
									OFFSET 0 0 0
									CHANNELS 3 Zrotation Yrotation Xrotation
									End Site
									{
										OFFSET 0.56741 -0.00000 0.56741
									}
								}
							}
						}
					}
				}
				JOINT RightShoulder
				{
					OFFSET 0 0 0
					CHANNELS 3 Zrotation Yrotation Xrotation
					JOINT RightArm
					{
						OFFSET -3.28999 1.24191 -0.26899
						CHANNELS 3 Zrotation Yrotation Xrotation
						JOINT RightForeArm
						{
							OFFSET -4.64462 -0.00000 0.00000
							CHANNELS 3 Zrotation Yrotation Xrotation
							JOINT RightHand
							{
								OFFSET -3.40703 -0.00000 0.00000
								CHANNELS 3 Zrotation Yrotation Xrotation
								JOINT RightFingerBase
								{
									OFFSET 0 0 0
									CHANNELS 3 Zrotation Yrotation Xrotation
									JOINT RightHandIndex1
									{
										OFFSET -0.61958 -0.00000 0.00000
										CHANNELS 3 Zrotation Yrotation Xrotation
										End Site
										{
											OFFSET -0.49952 -0.00000 0.00000
										}
									}
								}
								JOINT RThumb
								{
									OFFSET 0 0 0
									CHANNELS 3 Zrotation Yrotation Xrotation
									End Site
									{
										OFFSET -0.50715 -0.00000 0.50715
									}
								}
							}
						}
					}
				}
			}
		}
	}
}
MOTION
Frames: 14
Frame Time: 0.0338983
0.00 0.00 0.00 143.5140 -70.2487 197.5900 0.0000 0.0000 0.0000 -16.9908 13.8200 -2.6101 5.8694 14.3006 44.4553 0.0551 4.2928 -7.9174 0.0540 -1.4997 -4.1248 0.0000 0.0000 0.0000 8.2103 -14.0029 -0.1334 -3.4974 -11.4597 33.8465 0.5016 -12.7350 -1.7572 -1.2394 -7.0596 19.8920 -3.1259 0.5697 12.7156 3.9999 0.4560 1.1037 5.9525 0.3098 -6.0386 3.5559 1.6528 -26.2810 -4.6386 2.1094 20.7030 -1.9383 0.6100 11.1311 0.0000 0.0000 0.0000 -23.4773 15.2691 26.3291 88.6328 -59.9929 -58.8160 -0.0000 0.0000 -21.0024 26.9623 -25.9064 -12.5304 -7.1250 0.0000 -0.0000 -1.7047 1.4029 1.6632 0.0000 0.0000 0.0000 75.2802 -33.2475 -16.9105 -16.4523 26.1301 -3.8430 0.0000 -0.0000 -18.3874 -28.3201 -37.3385 18.1001 7.1250 -0.0000 -0.0000 9.1346 -70.7008 -5.6175
0.00 0.00 0.00 14.5492 -55.5548 336.1460 0.0000 0.0000 0.0000 -34.0474 15.3252 -4.2782 5.0939 13.4888 41.2268 2.5839 -7.7272 -29.0156 0.2096 2.9480 8.1339 0.0000 0.0000 0.0000 -9.7217 0.5898 -25.6344 -5.0869 -13.4810 41.1967 -0.2177 -17.9431 -27.1895 -3.2503 -11.0896 32.5827 -12.1722 0.6851 17.7034 -2.5221 -1.8008 2.0494 4.5793 -0.6072 -7.4413 7.6146 7.2305 -25.7798 -14.6594 9.3725 8.4077 -4.8388 3.2543 7.8858 -0.0000 -0.0000 0.0000 -50.5524 14.3532 -17.5287 67.6322 -58.0225 -40.7575 -0.0000 0.0000 -40.8987 45.4831 -11.9920 -11.9315 -7.1250 0.0000 -0.0000 12.2974 13.4006 -9.3347 -0.0000 -0.0000 0.0000 76.3203 -33.0205 -45.6866 -17.7243 27.8026 -4.4199 0.0000 -0.0000 -31.8189 -28.5266 -41.6833 19.8735 7.1250 -0.0000 -0.0000 15.0408 -74.9301 -10.6683
0.00 0.00 0.00 -7.5055 -26.5972 355.1510 0.0000 0.0000 0.0000 -27.0354 0.8281 3.3036 0.2463 3.1933 8.8175 0.0931 -1.2561 6.3695 0.6738 5.2489 14.6200 0.0000 0.0000 0.0000 27.8657 -7.1299 -36.5709 -7.5166 -15.7520 50.8023 -0.1982 -7.7727 -14.5495 -0.0214 0.9448 -2.5970 -8.6812 -0.6651 24.6361 -3.8327 -3.5428 5.3162 1.8068 -1.6248 -7.5252 10.3694 10.8756 -24.3603 -17.3389 14.6708 11.6964 -5.3114 5.5465 9.8801 -0.0000 0.0000 0.0000 -47.7647 -19.1763 25.4345 67.0305 -57.9095 -40.2474 -0.0000 0.0000 -26.6907 35.3721 -15.6035 -10.8108 -7.1250 0.0000 -0.0000 5.0889 11.1317 -4.0270 -0.0000 0.0000 0.0000 57.2498 -21.6973 -28.9844 -30.7206 41.5031 -11.8843 0.0000 -0.0000 -27.8499 -19.3492 -27.7231 9.2778 7.1250 -0.0000 -0.0000 12.5284 -58.6568 -4.2255
0.00 0.00 0.00 -7.6455 -15.0364 359.3040 0.0000 0.0000 0.0000 -26.7033 8.6810 -0.4819 0.0031 0.3576 0.9826 0.4452 -1.9981 13.4906 0.0000 0.0062 0.0170 0.0000 0.0000 0.0000 32.9778 -3.2952 -38.3521 -6.9059 -15.2521 48.5176 0.0077 2.0557 2.1728 -0.0030 -0.3522 0.9676 -9.6090 -2.1471 24.1496 -3.8988 -5.5455 5.4212 2.7839 -2.5692 -6.8875 10.3860 10.9707 -26.4438 -16.6584 14.6991 13.0573 -5.0377 5.4745 10.6477 0.0000 -0.0000 0.0000 -54.4538 -30.3138 42.5201 58.6739 -55.9461 -33.2400 -0.0000 0.0000 -23.0994 30.3544 -17.1399 -9.7921 -7.1250 0.0000 -0.0000 1.6035 10.3192 -1.2908 0.0000 -0.0000 0.0000 46.8277 -21.6082 -23.0944 -32.3530 42.8268 -12.9801 0.0000 -0.0000 -17.2476 -17.3314 -25.1774 7.5624 7.1250 -0.0000 -0.0000 13.2792 -55.7017 -3.5321
0.00 0.00 0.00 -0.6184 5.3847 361.6180 0.0000 0.0000 0.0000 -36.8312 15.1727 -3.3172 0.8562 5.9010 16.4975 -0.1489 -8.2922 -1.9918 0.4924 -4.4991 -12.4851 0.0000 0.0000 0.0000 31.4813 -2.7249 -37.0669 -6.0762 -14.5018 45.2867 -0.4536 1.7415 13.4746 -1.2529 -7.0962 20.0008 -11.2450 -4.9928 23.1209 -5.8682 -9.3454 6.5915 2.3180 -4.4842 -4.7082 10.4725 10.7279 -25.9906 -16.5759 14.5684 14.2896 -5.0777 5.4190 10.9969 -0.0000 -0.0000 0.0000 -75.6400 -43.3676 80.0952 38.7580 -47.3166 -17.5207 -0.0000 0.0000 -9.3945 14.6084 -24.1307 -6.0821 -7.1250 0.0000 -0.0000 -9.0514 5.3997 8.2656 -0.0000 -0.0000 0.0000 24.8564 -22.2906 -15.0357 -31.8525 42.4292 -12.6412 0.0000 -0.0000 -31.5168 -21.7760 -35.5154 13.0654 7.1250 -0.0000 -0.0000 15.7774 -66.8916 -8.4063
0.00 0.00 0.00 -0.2665 17.8772 361.0220 0.0000 0.0000 0.0000 -31.5982 20.1104 -2.5984 3.4873 11.4449 33.7955 0.0558 -11.1734 -8.6442 1.4202 -7.5363 -21.3144 0.0000 0.0000 0.0000 33.8413 -3.1232 -30.6204 -4.4655 -12.7553 38.4594 -0.9507 -0.5592 18.2517 -2.6053 -10.0269 29.0640 -9.1011 -6.2894 23.2131 -5.5350 -10.3433 7.5334 1.7067 -5.0085 -3.9332 10.3450 10.1704 -24.7368 -15.3837 13.7950 15.1537 -4.8175 5.2390 10.8402 -0.0000 0.0000 0.0000 -88.8956 -41.7882 97.9826 34.7407 -44.6261 -14.6309 -0.0000 -0.0000 12.5650 1.1037 -27.3398 -0.5070 -7.1250 0.0000 -0.0000 -17.1891 3.6514 16.8496 -0.0000 0.0000 0.0000 16.5518 -20.8090 -20.9372 -31.7695 42.3626 -12.5852 0.0000 -0.0000 -37.1576 -23.9353 -37.8301 15.2291 7.1250 -0.0000 -0.0000 15.6870 -69.7510 -9.3678
0.00 0.00 0.00 3.0760 29.4186 362.0950 0.0000 0.0000 0.0000 -27.5972 19.5645 -1.4799 7.6476 15.8538 51.2832 0.3269 -10.4223 -11.7059 0.8714 -5.9518 -16.6447 0.0000 0.0000 0.0000 30.4075 -2.2594 -24.5684 -3.7058 -11.7583 34.8823 0.1479 6.8098 2.8529 -4.7129 -13.0530 39.5671 -9.7052 -7.4360 22.0357 -5.9339 -11.6795 8.1287 1.6549 -5.7193 -2.5337 10.1101 10.0236 -25.2945 -14.1494 13.6037 17.0716 -4.3818 5.1938 11.4774 0.0000 0.0000 0.0000 -93.2837 -35.9582 103.9505 37.4707 -46.4979 -16.5806 -0.0000 -0.0000 19.3862 -0.9088 -28.6051 0.4351 -7.1250 0.0000 -0.0000 -18.3137 2.5807 18.4520 0.0000 0.0000 0.0000 12.8105 -17.2085 -29.1395 -32.8221 43.1929 -13.3002 0.0000 -0.0000 -37.4914 -25.6041 -35.5189 15.5575 7.1250 -0.0000 -0.0000 10.9551 -68.0461 -6.0934
0.00 0.00 0.00 6.7380 37.8453 363.2960 0.0000 0.0000 0.0000 -23.8678 17.8130 -0.7781 11.4502 18.1484 64.2352 0.7471 -5.9789 -15.4074 0.8042 -5.7233 -15.9837 0.0000 0.0000 0.0000 26.5125 0.2478 -25.3493 -4.8311 -13.1911 40.0879 -0.5785 3.2325 -13.6294 -3.1661 -10.9591 32.1422 -10.6433 -7.0126 22.9223 -5.8977 -11.4147 7.8121 2.2675 -5.5231 -3.1440 8.0081 8.6989 -23.7243 -13.2705 12.3666 16.8821 -3.9950 4.6845 10.7416 0.0000 -0.0000 0.0000 -94.9897 -28.9217 106.3662 41.6700 -49.0288 -19.6910 -0.0000 -0.0000 15.3283 5.4652 -30.3883 -2.7708 -7.1250 0.0000 -0.0000 -14.7268 0.3421 15.1488 0.0000 -0.0000 0.0000 11.1835 -15.8298 -35.3740 -35.4146 45.1059 -15.1063 0.0000 -0.0000 -38.8203 -24.7932 -34.2741 14.5813 7.1250 -0.0000 -0.0000 10.8485 -66.5746 -5.6698
0.00 0.00 0.00 -3.9037 40.2784 355.2430 0.0000 0.0000 0.0000 -0.2993 20.3068 -9.0441 17.5360 19.8538 82.7789 0.4052 -10.7644 -12.7150 0.4829 -4.4560 -12.3632 0.0000 0.0000 0.0000 34.1039 4.4684 -27.3891 -7.5706 -15.7941 51.0008 -1.9917 0.0498 -26.7119 -2.4026 -9.6586 27.8780 -2.9602 -3.0929 23.5494 -4.8139 -4.6232 8.5381 -2.3068 -2.1172 -3.8842 8.5894 8.0925 -22.3360 -13.6549 11.3712 15.7576 -4.4210 4.3335 10.0351 -0.0000 -0.0000 0.0000 -80.9132 -17.5725 91.7567 44.9022 -50.7205 -22.1630 -0.0000 -0.0000 4.0066 33.2518 -39.6201 -22.6908 -7.1250 0.0000 -0.0000 -1.1164 -14.7235 1.3637 -0.0000 -0.0000 0.0000 20.5723 -1.5341 -40.0146 -40.1588 48.1637 -18.5574 0.0000 -0.0000 -44.5450 -32.0389 -29.2820 17.0188 7.1250 -0.0000 -0.0000 -1.5240 -63.4588 0.6825
0.00 0.00 0.00 -8.4189 44.1656 351.5550 0.0000 0.0000 0.0000 6.3526 15.7855 -20.4718 17.1212 19.8001 81.5559 0.5658 -8.4191 -13.7750 0.3606 -3.8578 -10.6770 0.0000 0.0000 0.0000 34.2366 0.4824 -23.4438 -5.8352 -14.2667 44.3166 -1.6223 -2.0463 -24.8784 -1.3828 -7.4408 21.0280 -2.2891 -0.7856 23.2225 -4.7917 -1.4407 8.5343 -3.5059 -0.5317 -3.6438 6.5096 6.9327 -21.6067 -10.5604 9.9152 17.2839 -3.2610 3.8557 9.9443 -0.0000 0.0000 0.0000 -72.9980 -9.5416 51.7872 33.6037 -43.7890 -13.8381 -0.0000 -0.0000 11.2329 25.0840 -21.3674 -9.6786 -7.1250 0.0000 -0.0000 -2.2759 6.6318 1.9995 -0.0000 0.0000 0.0000 31.5685 15.5452 -25.2737 -27.6494 38.7915 -9.9033 0.0000 -0.0000 -46.9306 -26.7788 -34.7904 16.0639 7.1250 -0.0000 -0.0000 8.7434 -67.6810 -4.7825
0.00 0.00 0.00 -12.2224 48.3604 347.3950 0.0000 0.0000 0.0000 6.0883 10.2574 -24.1799 12.6571 18.6548 68.0570 0.7961 -3.3100 -16.0641 0.8554 -5.8982 -16.4893 0.0000 0.0000 0.0000 32.4079 -2.7367 -17.8780 -4.2549 -12.4920 37.4956 -0.8852 -2.5738 -18.8802 -0.7059 -5.3701 14.9673 -1.4911 0.0536 23.9962 -4.8181 -0.2384 7.8490 -4.3333 0.0669 -4.7238 6.2644 5.9644 -21.6249 -9.4410 8.5792 19.1681 -3.0615 3.3134 10.4162 -0.0000 -0.0000 0.0000 -67.6727 -9.9397 16.9197 25.4296 -36.6399 -8.5450 -0.0000 -0.0000 8.7880 29.4133 -12.0794 -6.7287 -7.1250 0.0000 -0.0000 1.5185 16.1803 -1.0355 -0.0000 -0.0000 0.0000 46.3525 22.9279 -3.8882 -23.3144 34.4308 -7.3153 0.0000 -0.0000 -35.6452 -24.1410 -35.5222 14.5957 7.1250 -0.0000 -0.0000 12.8409 -67.6044 -7.0262
0.00 0.00 0.00 -14.5236 51.1399 344.6920 0.0000 0.0000 0.0000 2.7337 7.1734 -23.5065 7.4471 15.6971 50.5456 0.9008 1.2035 -18.4046 0.5934 -4.9316 -13.7136 0.0000 0.0000 0.0000 27.4911 -5.5507 -16.8466 -4.3127 -12.5653 37.7624 -0.1562 -0.7135 -7.7592 -0.2042 -2.9098 8.0277 -1.7400 1.2185 23.5635 -4.5510 1.1931 7.0369 -4.2954 0.7468 -5.3103 4.5360 4.9362 -21.5446 -8.1644 7.4169 19.3465 -2.5113 2.8061 10.2331 0.0000 0.0000 0.0000 -61.5057 -9.9060 -11.7545 28.3586 -39.4442 -10.3507 -0.0000 0.0000 -3.3491 31.3844 -11.0364 -6.6608 -7.1250 0.0000 -0.0000 2.9823 17.1214 -1.9749 0.0000 0.0000 0.0000 64.3752 26.0389 12.2755 -25.1172 36.3236 -8.3592 0.0000 -0.0000 -16.0117 -15.4566 -26.4219 7.0144 7.1250 -0.0000 -0.0000 15.8739 -56.5398 -4.5710
0.00 0.00 0.00 -18.3598 51.0859 337.9450 0.0000 0.0000 0.0000 -2.2249 3.8764 -11.6488 4.3498 12.6119 37.9324 0.8796 2.9023 -18.9931 0.9996 -6.3625 -17.8400 0.0000 0.0000 0.0000 15.5570 -12.1613 -15.4649 -3.9386 -12.0783 36.0094 -0.1446 -5.1761 -10.9035 -0.6965 -5.3350 14.8665 -1.5964 3.5736 21.4915 -2.9810 4.3183 5.1951 -3.4543 2.2046 -6.1775 1.9184 4.0528 -23.1077 -5.8190 6.7358 22.5206 -1.3398 2.4800 11.4484 0.0000 0.0000 0.0000 -40.3226 -2.6092 -26.9129 34.5905 -44.5175 -14.5255 -0.0000 0.0000 -23.1375 36.3569 -12.1193 -8.7852 -7.1250 0.0000 -0.0000 6.2533 15.1110 -4.4338 0.0000 0.0000 0.0000 90.0451 24.8701 48.5663 -28.7970 39.8397 -10.6304 0.0000 0.0000 0.9353 -10.9676 -21.5948 4.0796 7.1250 -0.0000 -0.0000 17.8416 -51.0643 -2.7399
0.00 0.00 0.00 -20.0037 51.2116 333.4730 0.0000 0.0000 0.0000 -4.7833 5.9343 -10.7975 6.0500 14.4766 45.1821 2.0879 -0.6984 -27.1540 0.3976 -4.0485 -11.2130 0.0000 0.0000 0.0000 5.3877 -10.8431 -11.2172 -1.1346 -6.7648 19.0205 -0.6802 -11.2438 -23.4295 -1.2663 -7.1327 20.1092 -1.9539 4.2802 22.4459 -1.2114 5.2454 4.9746 -1.6814 2.6455 -7.0783 0.9293 4.3942 -24.4212 -5.3812 7.1454 19.2835 -0.9359 2.6823 10.4492 -0.0000 0.0000 0.0000 -25.6535 2.9656 -26.1800 38.7258 -47.2966 -17.4970 -0.0000 0.0000 -24.9193 32.4457 -12.6715 -7.9390 -7.1250 0.0000 -0.0000 3.5327 15.0809 -2.4967 -0.0000 0.0000 0.0000 92.1562 21.4633 65.9216 -44.8886 50.7138 -22.1525 0.0000 0.0000 10.2585 -11.3531 -17.3688 3.4301 7.1250 -0.0000 -0.0000 15.7707 -47.0401 -0.8135
